<svg width="168" height="71" viewBox="0 0 168 71" fill="none" xmlns="http://www.w3.org/2000/svg">
<path d="M87.1413 30.0345C87.1413 35.6544 85.1837 41.4007 81.2687 47.2733C77.3537 53.1459 72.3967 58.0081 66.3979 61.86C60.4621 65.6487 54.6212 67.5431 48.8749 67.5431C44.3284 67.5431 40.4765 66.7538 37.3192 65.1752C34.1619 63.5965 32.1097 61.3232 31.1625 58.3554C28.8261 61.197 26.2371 63.344 23.3955 64.7963C20.554 66.2486 17.5862 66.9748 14.492 66.9748C10.1981 66.9748 6.69347 65.9329 3.97819 63.8491C1.32606 61.7021 0 58.5764 0 54.4719C0 52.3249 0.347306 50.1149 1.04191 47.8416L6.34616 29.2767C6.47245 28.7716 6.5356 28.3927 6.5356 28.1401C6.5356 27.5086 6.37773 26.9719 6.062 26.5299C5.74628 26.0878 5.30425 25.6142 4.73594 25.1091C3.78875 24.2882 3.31516 23.5621 3.31516 22.9306C3.25201 22.0466 3.78875 21.0994 4.92538 20.089C6.062 19.0786 7.64065 18.2578 9.66132 17.6263C11.7451 16.9317 14.0816 16.5844 16.6705 16.5844C20.9013 16.5844 24.1848 17.6263 26.5213 19.7101C28.9208 21.7308 30.1206 24.3829 30.1206 27.6665C30.1206 29.1188 29.868 30.6975 29.3628 32.4024L24.5322 48.5046C24.2795 49.3886 24.1533 49.9886 24.1533 50.3043C24.1533 51.1252 24.3743 51.7566 24.8163 52.1987C25.3215 52.6407 25.9845 52.8617 26.8054 52.8617C27.942 52.8617 28.8892 52.4828 29.647 51.7251C30.4679 50.9041 31.2572 49.6097 32.015 47.8416L37.4139 29.2767C37.5402 28.7716 37.6034 28.3927 37.6034 28.1401C37.6034 27.5086 37.4455 26.9719 37.1298 26.5299C36.8141 26.0878 36.372 25.6142 35.8037 25.1091C34.8565 24.2882 34.3829 23.5621 34.3829 22.9306C34.3197 22.0466 34.8565 21.0994 35.9931 20.089C37.1298 19.0786 38.7085 18.2578 40.7291 17.6263C42.8129 16.9317 45.1493 16.5844 47.7383 16.5844C52.0322 16.5844 55.3473 17.5948 57.6837 19.6154C60.0202 21.636 61.1883 24.3198 61.1883 27.6665C61.1883 28.9926 60.9357 30.5713 60.4306 32.4024L54.2739 52.6723C54.1476 52.988 54.0844 53.4616 54.0844 54.093C54.0844 54.914 54.3686 55.5454 54.9369 55.9874C55.5052 56.4295 56.2945 56.6505 57.3049 56.6505C58.6941 56.6505 60.3043 56.0506 62.1355 54.8508C64.0299 53.5879 65.8611 51.8198 67.6292 49.5465C69.4604 47.2101 70.9444 44.4633 72.081 41.306C69.5551 39.0959 67.7555 36.9174 66.682 34.7704C65.6717 32.6234 65.1665 30.4134 65.1665 28.1401C65.1665 24.9197 66.0505 22.2044 67.8187 19.9943C69.5868 17.721 72.1442 16.5844 75.4909 16.5844C78.8376 16.5844 81.6161 17.7842 83.8261 20.1837C86.0362 22.5832 87.1413 25.8669 87.1413 30.0345Z" fill="#FF6F1E"/>
<path d="M140.098 16.395L143.203 17.2821C143.205 17.2721 143.208 17.2622 143.211 17.2522L140.098 16.395ZM145.118 6.5442L142.835 4.26094C142.823 4.27192 142.812 4.28301 142.801 4.2942L145.118 6.5442ZM161.504 6.16533L159.146 8.37131C159.158 8.38412 159.171 8.39693 159.182 8.40963L161.504 6.16533ZM160.083 22.6464L161.897 25.3183C161.917 25.3038 161.939 25.2891 161.961 25.274L160.083 22.6464ZM151.369 24.2566L150.643 27.403C150.732 27.4236 150.822 27.4402 150.913 27.4532L151.369 24.2566ZM149.001 23.5936L150.023 20.5302C149.18 20.2495 148.26 20.3279 147.476 20.7472C146.694 21.1665 146.119 21.8896 145.885 22.7464L149.001 23.5936ZM143.413 44.1476L140.297 43.3004L140.295 43.3091L143.413 44.1476ZM133.278 61.3864L135.335 63.8751C135.342 63.8697 135.349 63.8644 135.355 63.8589L133.278 61.3864ZM96.5271 62.9966L94.6891 65.6515C94.6953 65.6558 94.7017 65.6602 94.708 65.6646L96.5271 62.9966ZM91.8858 40.1694L94.9864 41.0714C94.9886 41.0634 94.991 41.0553 94.9933 41.0474L91.8858 40.1694ZM99.0845 14.69L95.9983 13.7404C95.9909 13.7643 95.9838 13.7881 95.9771 13.812L99.0845 14.69ZM99.0845 10.5224L96.061 11.6562C96.1217 11.8179 96.1952 11.9745 96.2809 12.1244L99.0845 10.5224ZM98.232 8.81746L101.001 7.15611C100.965 7.09605 100.927 7.03707 100.887 6.97948L98.232 8.81746ZM97.569 5.88118L100.632 6.90231C100.64 6.87852 100.648 6.85473 100.655 6.83084L97.569 5.88118ZM99.2739 4.17624L100.36 7.21714C100.423 7.19475 100.485 7.17043 100.546 7.14416L99.2739 4.17624ZM129.394 7.0178L132.458 8.03893C132.484 7.96047 132.507 7.88114 132.527 7.80095L129.394 7.0178ZM127.027 9.57521L128.61 12.3895C128.66 12.3609 128.711 12.3309 128.761 12.2994L127.027 9.57521ZM122.954 14.69L119.864 13.7498C119.859 13.7689 119.853 13.7878 119.847 13.807L122.954 14.69ZM114.713 43.674L111.607 42.7909C111.601 42.8098 111.597 42.8287 111.592 42.8477L114.713 43.674ZM127.595 52.8617L129.838 55.1847L129.839 55.1834L127.595 52.8617ZM132.331 43.5793L135.432 44.4782L135.436 44.4664L132.331 43.5793ZM143.211 17.2522C144.329 13.1916 145.801 10.4746 147.434 8.79421L142.801 4.2942C140.14 7.03405 138.266 10.8842 136.985 15.5378L143.211 17.2522ZM147.401 8.82747C148.871 7.35749 151.004 6.4581 154.211 6.4581V0C149.714 0 145.785 1.31067 142.835 4.26094L147.401 8.82747ZM154.211 6.4581C156.477 6.4581 158.008 7.15482 159.146 8.37131L163.862 3.95935C161.337 1.26073 158.007 0 154.211 0V6.4581ZM159.182 8.40963C160.384 9.65184 161.022 11.1929 161.022 13.2692H167.48C167.48 9.6625 166.287 6.46757 163.826 3.92103L159.182 8.40963ZM161.022 13.2692C161.022 13.8749 160.919 14.7064 160.645 15.8012L166.91 17.3675C167.268 15.9366 167.48 14.558 167.48 13.2692H161.022ZM160.645 15.8012C160.076 18.0751 159.175 19.3273 158.206 20.0188L161.961 25.274C164.529 23.4397 166.089 20.6505 166.91 17.3675L160.645 15.8012ZM158.27 19.9745C157.022 20.821 155.725 21.217 154.306 21.217V27.6751C157.053 27.6751 159.608 26.8714 161.897 25.3183L158.27 19.9745ZM154.306 21.217C153.355 21.217 152.532 21.1609 151.826 21.0601L150.913 27.4532C151.974 27.6049 153.109 27.6751 154.306 27.6751V21.217ZM152.096 21.1102C151.368 20.9425 150.678 20.7488 150.023 20.5302L147.98 26.6569C148.84 26.9435 149.728 27.1918 150.643 27.403L152.096 21.1102ZM145.885 22.7464L140.297 43.3004L146.529 44.9948L152.117 24.4408L145.885 22.7464ZM140.295 43.3091C138.401 50.3505 135.313 55.4593 131.201 58.9139L135.355 63.8589C140.714 59.3571 144.384 52.9733 146.531 44.986L140.295 43.3091ZM131.221 58.8977C127.229 62.1977 121.596 64.0299 113.955 64.0299V70.488C122.606 70.488 129.855 68.4052 135.335 63.8751L131.221 58.8977ZM113.955 64.0299C106.86 64.0299 101.777 62.6686 98.3461 60.3287L94.708 65.6646C99.6115 69.0077 106.149 70.488 113.955 70.488V64.0299ZM98.365 60.3417C95.3146 58.2299 93.5994 54.9189 93.5994 49.736H87.1413C87.1413 56.5508 89.5306 62.0802 94.6891 65.6515L98.365 60.3417ZM93.5994 49.736C93.5994 47.2004 94.0413 44.3198 94.9864 41.0714L88.7853 39.2674C87.7097 42.965 87.1413 46.462 87.1413 49.736H93.5994ZM94.9933 41.0474L102.192 15.568L95.9771 13.812L88.7784 39.2914L94.9933 41.0474ZM102.17 15.6397C102.505 14.5515 102.692 13.4413 102.692 12.3221H96.2343C96.2343 12.7183 96.1685 13.1868 95.9983 13.7404L102.17 15.6397ZM102.692 12.3221C102.692 11.257 102.523 10.0318 101.888 8.92035L96.2809 12.1244C96.2104 12.0011 96.2013 11.9331 96.2089 11.969C96.2166 12.0061 96.2343 12.1166 96.2343 12.3221H102.692ZM102.108 9.38857C101.83 8.64772 101.447 7.89922 101.001 7.15611L95.4631 10.4788C95.775 10.9986 95.9599 11.3867 96.061 11.6562L102.108 9.38857ZM100.887 6.97948C100.788 6.83676 100.714 6.71825 100.659 6.62289C100.604 6.52688 100.574 6.46413 100.561 6.43248C100.547 6.39987 100.556 6.41526 100.57 6.4736C100.584 6.53172 100.609 6.65442 100.609 6.82836H94.1505C94.1505 8.37497 94.9395 9.73451 95.5771 10.6554L100.887 6.97948ZM100.609 6.82836C100.609 6.89865 100.604 6.95139 100.601 6.98368C100.597 7.01619 100.594 7.03395 100.593 7.03535C100.593 7.03707 100.595 7.02663 100.601 7.00305C100.608 6.9797 100.618 6.94633 100.632 6.90231L94.5056 4.86004C94.3256 5.40016 94.1505 6.0874 94.1505 6.82836H100.609ZM100.655 6.83084C100.649 6.85226 100.632 6.89747 100.598 6.95559C100.563 7.01457 100.518 7.07205 100.468 7.12253C100.362 7.22876 100.293 7.24104 100.36 7.21714L98.1879 1.13533C96.4477 1.75682 95.0657 3.03692 94.4828 4.93151L100.655 6.83084ZM100.546 7.14416C100.829 7.02264 101.604 6.83697 103.157 6.83697V0.378874C101.301 0.378874 99.4865 0.572079 98.0019 1.20831L100.546 7.14416ZM103.157 6.83697H125.416V0.378874H103.157V6.83697ZM125.416 6.83697C125.943 6.83697 126.314 6.87755 126.56 6.92728C126.811 6.97776 126.861 7.0234 126.8 6.9868C126.719 6.9374 126.544 6.80135 126.407 6.55206C126.272 6.30806 126.26 6.11345 126.26 6.07061H132.718C132.718 4.16752 131.828 2.48012 130.141 1.46039C128.716 0.598556 126.994 0.378874 125.416 0.378874V6.83697ZM126.26 6.07061C126.26 6.17265 126.256 6.23723 126.253 6.27028C126.249 6.30472 126.248 6.28868 126.262 6.23465L132.527 7.80095C132.676 7.20509 132.718 6.60534 132.718 6.07061H126.26ZM126.331 5.99667C126.304 6.076 126.282 6.11937 126.271 6.13788C126.26 6.15532 126.256 6.15823 126.259 6.15532L130.825 10.7218C131.599 9.94849 132.128 9.02606 132.458 8.03893L126.331 5.99667ZM126.259 6.15532C126.195 6.21947 125.925 6.44852 125.293 6.85096L128.761 12.2994C129.517 11.8179 130.258 11.2891 130.825 10.7218L126.259 6.15532ZM125.443 6.76088C124.2 7.4605 123.086 8.29511 122.174 9.29751L126.953 13.6417C127.305 13.2549 127.833 12.8265 128.61 12.3895L125.443 6.76088ZM122.174 9.29751C121.083 10.4984 120.369 12.09 119.864 13.7498L126.043 15.6302C126.422 14.3853 126.782 13.83 126.953 13.6417L122.174 9.29751ZM119.847 13.807L111.607 42.7909L117.819 44.557L126.06 15.5731L119.847 13.807ZM111.592 42.8477C110.981 45.1515 110.632 47.2767 110.632 49.1677H117.09C117.09 48.0276 117.308 46.4903 117.834 44.5003L111.592 42.8477ZM110.632 49.1677C110.632 51.8427 111.361 54.4257 113.365 56.2912C115.327 58.1159 117.965 58.7429 120.68 58.7429V52.2848C118.849 52.2848 118.078 51.8541 117.766 51.5634C117.497 51.3135 117.09 50.7233 117.09 49.1677H110.632ZM120.68 58.7429C124.212 58.7429 127.347 57.5898 129.838 55.1847L125.352 50.5387C124.181 51.6698 122.706 52.2848 120.68 52.2848V58.7429ZM129.839 55.1834C132.334 52.7716 134.111 49.0349 135.432 44.4782L129.23 42.6803C128.024 46.8377 126.644 49.2893 125.351 50.54L129.839 55.1834ZM135.436 44.4664L143.203 17.2821L136.992 15.5078L129.225 42.6921L135.436 44.4664Z" fill="#FF6F1E"/>
</svg>
