<?xml version="1.0" standalone="no"?>
<!DOCTYPE svg PUBLIC "-//W3C//DTD SVG 20010904//EN"
 "http://www.w3.org/TR/2001/REC-SVG-20010904/DTD/svg10.dtd">
<svg version="1.0" xmlns="http://www.w3.org/2000/svg"
 width="1344.000000pt" height="1344.000000pt" viewBox="0 0 1344.000000 1344.000000"
 preserveAspectRatio="xMidYMid meet">
<metadata>
Created by potrace 1.14, written by Peter Selinger 2001-2017
</metadata>
<g transform="translate(0.000000,1344.000000) scale(0.100000,-0.100000)"
fill="#000000" stroke="none">
<path d="M12177 9554 c-2 -2 -25 -6 -52 -9 -78 -8 -116 -14 -125 -20 -4 -3
-24 -7 -44 -11 -20 -3 -51 -11 -69 -19 -18 -7 -34 -13 -37 -13 -3 -1 -18 -5
-33 -11 -16 -6 -33 -11 -38 -11 -5 0 -9 -5 -9 -12 0 -6 -3 -8 -7 -5 -8 9 -120
-52 -203 -111 -61 -44 -230 -206 -230 -222 0 -4 -13 -23 -30 -41 -16 -19 -30
-39 -30 -45 0 -7 -7 -14 -15 -18 -8 -3 -15 -10 -15 -15 0 -5 -19 -42 -43 -83
-50 -86 -137 -270 -137 -290 0 -8 -4 -18 -9 -23 -9 -10 -53 -145 -91 -275 -12
-41 -26 -88 -32 -105 -5 -16 -11 -39 -14 -50 -2 -11 -24 -90 -49 -175 -25 -85
-48 -163 -50 -174 -2 -10 -12 -44 -21 -75 -9 -31 -17 -60 -19 -66 -1 -5 -4
-17 -7 -25 -8 -20 -74 -256 -99 -350 -11 -41 -23 -82 -26 -90 -3 -8 -7 -17 -8
-20 0 -3 -7 -30 -14 -60 -8 -30 -16 -59 -20 -65 -3 -5 -6 -14 -8 -20 -6 -31
-16 -66 -62 -225 -28 -96 -53 -182 -55 -190 -18 -72 -28 -107 -33 -120 -10
-26 -24 -79 -25 -97 -1 -7 -6 -13 -11 -13 -6 0 -8 -3 -5 -6 6 -5 -16 -89 -71
-269 -124 -413 -260 -623 -456 -708 -62 -27 -189 -43 -275 -35 -97 9 -115 13
-153 37 -29 17 -77 81 -62 81 3 0 1 9 -5 20 -18 34 -13 202 10 315 6 28 12 59
14 70 2 11 11 47 20 80 9 33 19 68 21 77 2 9 11 41 19 70 33 111 87 304 92
327 3 14 8 29 11 34 3 5 16 48 28 96 13 47 40 145 60 216 21 72 38 135 40 140
1 6 5 17 8 25 5 13 51 176 62 220 2 8 26 95 55 192 28 97 53 185 55 195 2 10
20 74 40 143 21 69 39 132 40 140 2 8 18 62 35 120 17 58 33 116 36 129 3 13
9 32 15 43 5 10 7 18 5 18 -3 0 1 18 9 40 8 22 12 40 8 40 -3 0 -1 6 4 13 6 6
13 26 16 44 14 70 67 161 120 204 29 23 63 46 77 53 14 6 31 16 38 23 8 7 23
18 34 24 103 55 233 229 254 339 21 117 8 233 -36 326 -51 103 -204 214 -320
230 -8 1 -28 6 -45 10 -33 9 -2081 12 -2160 3 -58 -7 -194 -46 -212 -61 -7 -6
-13 -7 -13 -3 0 5 -9 0 -20 -10 -11 -10 -20 -15 -20 -11 0 10 -75 -48 -116
-88 -77 -77 -132 -223 -129 -344 2 -59 28 -166 45 -182 3 -3 14 -24 25 -47 11
-24 23 -43 26 -43 3 0 21 -32 38 -70 28 -59 32 -78 27 -118 -6 -41 -64 -259
-113 -422 -10 -30 -18 -59 -19 -65 -1 -5 -25 -91 -53 -190 -29 -99 -54 -189
-56 -200 -3 -11 -14 -51 -25 -90 -22 -73 -23 -77 -40 -137 -5 -21 -15 -55 -20
-75 -6 -21 -12 -42 -14 -48 -3 -11 -29 -101 -51 -180 -8 -27 -42 -147 -76
-265 -33 -118 -67 -237 -75 -265 -8 -27 -16 -59 -19 -70 -3 -11 -18 -67 -34
-125 -16 -58 -32 -118 -37 -135 -4 -16 -8 -32 -9 -35 -12 -42 -51 -245 -59
-310 -27 -207 -28 -568 -1 -670 2 -8 6 -31 9 -50 25 -163 127 -419 219 -548
18 -24 37 -51 42 -59 33 -50 146 -167 215 -222 25 -20 47 -38 50 -41 45 -50
463 -265 482 -249 2 1 14 -4 28 -11 13 -7 47 -19 75 -27 119 -33 155 -43 177
-47 12 -2 34 -7 48 -10 30 -7 74 -15 115 -22 17 -2 41 -7 55 -10 75 -17 316
-36 462 -38 60 -1 108 -5 108 -9 0 -5 4 -5 10 -2 5 3 78 8 162 10 194 5 273
13 468 46 142 23 153 26 270 57 41 12 100 29 130 38 30 10 57 18 60 19 3 1 22
9 44 18 21 9 40 17 43 17 29 0 344 166 408 215 11 9 43 32 70 52 104 76 277
238 355 333 70 85 128 161 165 216 22 32 43 61 46 64 3 3 9 12 13 20 4 8 12
24 19 35 122 201 222 417 304 660 32 96 285 999 308 1105 2 8 22 80 45 160 22
80 42 154 45 165 2 11 5 22 6 25 1 3 3 10 4 15 2 6 4 12 5 15 1 3 3 13 6 23 2
9 6 25 8 35 3 9 5 17 6 17 1 0 4 9 6 20 3 11 6 27 9 35 2 8 4 18 4 22 1 3 29
4 64 1 77 -6 257 -6 317 1 64 6 194 41 265 70 140 57 224 113 326 216 139 141
230 316 286 550 33 140 41 217 38 351 -3 113 -35 301 -56 323 -5 6 -9 17 -9
25 0 25 -77 170 -128 241 -68 96 -192 216 -277 267 -36 23 -204 104 -222 108
-10 2 -43 11 -73 19 -89 24 -187 34 -322 33 -71 0 -129 -2 -131 -3z m259 -517
c159 -19 289 -107 376 -256 88 -148 90 -366 5 -592 -68 -180 -166 -265 -367
-316 -76 -20 -295 -5 -390 27 -132 44 -221 36 -297 -26 -57 -47 -82 -90 -108
-192 -13 -48 -30 -112 -39 -143 -9 -31 -19 -66 -21 -78 -7 -29 -12 -48 -30
-111 -9 -30 -27 -95 -40 -145 -13 -49 -29 -106 -35 -125 -6 -19 -13 -44 -15
-55 -2 -11 -20 -78 -40 -150 -20 -71 -38 -139 -40 -150 -3 -11 -16 -60 -30
-110 -14 -49 -28 -101 -31 -115 -3 -14 -16 -63 -30 -110 -14 -47 -27 -92 -29
-100 -19 -83 -52 -199 -83 -300 -14 -47 -27 -89 -28 -95 -11 -45 -111 -293
-125 -311 -5 -6 -6 -14 -2 -17 3 -4 1 -7 -5 -7 -7 0 -12 -7 -12 -15 0 -8 -13
-37 -30 -65 -16 -28 -30 -54 -30 -58 0 -4 -23 -42 -50 -85 -28 -43 -50 -82
-50 -87 0 -4 -3 -10 -7 -12 -5 -1 -28 -30 -52 -63 -25 -33 -48 -61 -53 -63 -4
-2 -8 -8 -8 -12 0 -19 -182 -204 -265 -270 -57 -46 -193 -132 -242 -155 -24
-11 -43 -23 -43 -27 0 -5 -8 -8 -18 -8 -10 0 -23 -5 -29 -11 -6 -6 -17 -12
-24 -13 -8 -1 -30 -9 -49 -18 -19 -8 -66 -25 -105 -37 -38 -12 -77 -25 -85
-28 -17 -7 -25 -9 -60 -17 -14 -3 -36 -8 -50 -11 -76 -17 -149 -30 -230 -40
-30 -4 -68 -9 -84 -11 -125 -20 -491 -20 -706 1 -201 19 -452 73 -575 124 -11
5 -51 21 -89 37 -85 34 -219 114 -288 173 -64 54 -136 140 -169 201 -13 25
-27 47 -30 50 -21 19 -82 219 -93 305 -4 28 -9 66 -11 85 -6 39 -5 279 0 325
7 56 15 110 20 143 3 17 8 47 10 65 6 44 12 71 31 147 9 36 18 72 19 80 2 8 4
16 4 18 1 1 1 3 0 5 0 1 5 16 11 32 7 17 13 37 15 45 5 23 29 112 69 250 47
164 77 271 82 290 2 8 15 56 29 105 15 50 36 124 47 165 11 41 22 82 25 90 4
8 7 20 8 25 0 6 4 17 7 25 7 18 46 157 53 185 2 11 18 67 35 125 17 58 33 113
35 123 4 20 76 275 155 553 55 192 67 266 64 374 -4 113 -20 164 -95 314 -22
43 -39 80 -37 82 3 2 22 6 44 10 50 9 1895 11 1886 3 -4 -4 -33 -24 -64 -46
-98 -67 -177 -143 -229 -220 -27 -40 -46 -73 -42 -73 4 0 3 -4 -2 -8 -12 -9
-46 -78 -60 -122 -19 -60 -35 -117 -37 -125 0 -5 -7 -25 -15 -42 -7 -18 -11
-33 -8 -33 3 0 1 -8 -4 -18 -6 -11 -12 -30 -15 -43 -5 -26 -120 -431 -168
-594 -16 -55 -31 -107 -33 -115 -1 -8 -11 -42 -20 -75 -10 -33 -17 -61 -17
-62 1 -2 -5 -21 -13 -43 -8 -22 -14 -41 -14 -43 1 -6 -14 -63 -20 -72 -3 -5
-6 -14 -7 -20 -6 -32 -14 -64 -24 -95 -6 -19 -13 -42 -15 -50 -2 -8 -31 -112
-65 -230 -34 -118 -64 -222 -66 -230 -2 -8 -10 -40 -19 -70 -9 -30 -17 -59
-19 -65 -1 -5 -10 -37 -20 -70 -10 -33 -19 -64 -20 -70 -1 -5 -10 -37 -20 -70
-10 -33 -20 -67 -21 -75 -2 -8 -4 -15 -5 -15 -1 0 -3 -7 -5 -15 -1 -8 -8 -35
-16 -60 -16 -56 -13 -46 -38 -170 -11 -58 -23 -118 -26 -135 -11 -55 -14 -309
-4 -360 15 -77 15 -77 27 -122 39 -135 143 -283 247 -349 17 -10 32 -21 35
-24 6 -7 115 -60 123 -60 3 0 18 -5 34 -12 15 -6 35 -12 43 -14 37 -7 86 -18
100 -21 33 -9 301 -10 346 -2 27 5 63 11 79 14 101 14 291 99 394 177 59 44
152 136 192 189 13 17 33 43 45 57 38 50 171 289 166 299 0 2 12 31 27 65 27
60 89 233 96 267 2 9 10 36 18 61 8 25 29 97 47 160 18 63 43 152 57 197 13
45 26 90 28 100 2 10 20 74 40 143 20 69 38 132 40 140 2 8 11 38 19 65 48
168 141 493 162 565 12 47 30 108 38 135 96 332 168 583 171 598 2 10 16 57
31 105 14 48 27 92 29 97 1 6 5 17 8 25 3 8 15 42 27 75 20 57 106 237 133
280 30 48 104 142 132 168 67 62 82 74 140 104 82 43 216 79 292 78 35 0 63 2
63 5 0 6 83 4 146 -3z"/>
<path d="M1317 8235 c-1 -2 -54 -5 -117 -8 -63 -4 -131 -9 -150 -12 -19 -4
-44 -8 -55 -10 -161 -26 -478 -140 -493 -177 -2 -4 -10 -8 -18 -8 -8 0 -14 -4
-14 -9 0 -5 -9 -12 -19 -16 -32 -10 -138 -123 -162 -173 -27 -54 -28 -115 -4
-162 9 -17 61 -76 115 -131 55 -55 99 -103 98 -107 -1 -4 4 -20 11 -37 24 -56
18 -106 -34 -280 -20 -66 -38 -133 -41 -149 -3 -16 -10 -41 -16 -55 -5 -14
-19 -60 -29 -101 -11 -41 -21 -79 -23 -85 -2 -5 -4 -13 -5 -17 -1 -4 -8 -26
-16 -48 -8 -22 -14 -42 -15 -45 0 -3 0 -6 -1 -7 0 -2 -2 -10 -4 -18 -3 -17
-71 -251 -116 -405 -16 -55 -31 -108 -33 -117 -11 -44 -48 -175 -53 -188 -3
-8 -7 -20 -8 -25 -2 -6 -17 -61 -34 -123 -18 -61 -34 -122 -36 -134 -3 -13 -7
-34 -10 -48 -24 -113 -29 -174 -29 -335 0 -221 18 -311 92 -475 44 -98 161
-237 252 -300 19 -13 37 -27 40 -30 3 -3 41 -25 86 -48 134 -69 309 -120 474
-138 132 -15 345 -10 470 11 19 3 44 7 55 9 11 2 27 6 35 10 8 3 26 7 40 10
85 14 299 105 429 182 48 28 219 152 249 181 10 10 45 43 78 74 70 67 131 132
161 172 l22 30 11 -27 c19 -52 74 -161 82 -164 4 -2 8 -10 8 -18 0 -8 4 -14 8
-14 4 0 15 -13 25 -29 25 -43 174 -191 192 -191 3 0 16 -9 28 -20 32 -30 249
-135 342 -166 84 -27 165 -50 212 -59 16 -3 37 -7 48 -9 11 -2 40 -7 65 -11
25 -3 57 -8 72 -11 80 -12 418 -24 418 -14 0 3 26 5 58 6 74 0 168 11 253 29
38 8 82 17 99 20 36 6 244 69 285 86 17 7 32 13 35 13 14 3 141 58 240 104 80
37 382 212 400 232 3 3 37 26 75 52 181 121 350 263 550 463 144 143 189 192
252 272 15 19 35 43 43 53 22 27 55 70 90 115 16 22 34 45 40 52 5 7 10 15 10
18 0 3 8 14 18 25 55 59 251 403 322 565 12 28 28 64 36 80 59 132 128 397
152 575 8 68 8 396 -1 468 -8 65 -46 213 -58 226 -5 6 -9 17 -9 25 0 24 -76
170 -110 213 -17 20 -30 39 -30 43 0 6 -123 129 -161 160 -94 77 -290 156
-424 171 -50 6 -238 5 -265 -1 -14 -3 -41 -8 -60 -11 -49 -8 -148 -43 -190
-67 -19 -11 -46 -26 -58 -33 -30 -16 -152 -124 -152 -135 0 -4 -10 -19 -22
-33 -66 -71 -154 -253 -173 -356 -3 -14 -7 -36 -10 -50 -32 -154 -24 -386 17
-535 6 -22 12 -44 14 -50 6 -26 55 -147 79 -195 64 -127 137 -221 297 -384 99
-101 124 -133 117 -145 -8 -14 -30 -67 -34 -81 -8 -31 -31 -80 -38 -80 -4 0
-6 -3 -4 -7 3 -5 -2 -22 -12 -40 -9 -18 -31 -63 -50 -100 -37 -72 -176 -287
-220 -339 -14 -17 -46 -55 -71 -85 -57 -68 -194 -204 -240 -238 -19 -14 -37
-28 -40 -31 -13 -14 -81 -61 -121 -85 -174 -103 -341 -139 -461 -99 -100 33
-143 97 -140 208 1 37 5 73 9 80 4 6 8 16 9 21 1 6 16 57 34 115 18 58 33 110
35 115 1 6 14 51 30 100 16 50 30 95 31 100 1 6 11 42 24 80 12 39 23 77 25
85 2 8 25 83 50 165 26 83 60 193 75 245 16 52 36 120 46 150 10 30 18 60 20
65 1 6 27 93 59 195 31 102 58 193 60 203 2 10 7 27 10 37 3 10 8 29 11 42 57
256 48 463 -28 646 -28 66 -79 153 -115 192 -79 88 -123 126 -203 176 -63 40
-220 108 -270 118 -14 2 -45 9 -70 15 -70 15 -97 20 -174 26 -157 14 -372 7
-491 -16 -27 -5 -64 -12 -82 -15 -17 -3 -62 -14 -100 -25 -37 -11 -72 -22 -78
-23 -5 -2 -19 -7 -30 -11 -11 -4 -49 -19 -85 -33 -202 -79 -381 -249 -380
-363 1 -54 32 -109 101 -175 166 -160 182 -209 128 -391 -16 -54 -31 -107 -34
-118 -2 -11 -19 -67 -36 -125 -46 -157 -59 -203 -64 -225 -3 -11 -9 -31 -14
-45 -6 -14 -19 -61 -31 -105 -20 -75 -36 -131 -48 -165 -3 -8 -6 -19 -7 -25
-5 -20 -77 -270 -83 -285 -3 -8 -6 -19 -8 -25 -16 -63 -48 -173 -54 -185 -4
-8 -10 -28 -13 -45 -20 -113 -129 -317 -213 -400 -52 -50 -128 -84 -203 -91
-148 -12 -236 61 -236 196 0 31 6 74 12 96 7 21 29 93 49 159 20 66 40 134 44
150 16 60 61 210 67 225 3 8 7 20 8 25 2 6 13 44 26 85 12 41 23 80 25 85 1 6
10 37 20 70 10 33 19 62 19 65 1 3 4 12 8 20 6 17 67 228 72 250 2 8 4 16 5
18 2 1 3 5 5 10 1 4 4 14 7 22 9 24 65 222 73 255 24 106 28 142 29 270 1 144
-5 189 -35 285 -43 135 -122 252 -239 354 -73 64 -89 76 -100 76 -6 0 -10 4
-10 8 0 9 -45 33 -150 80 -66 29 -198 66 -278 77 -79 10 -269 24 -275 20z"/>
</g>
</svg>
